<mxfile host="app.diagrams.net" modified="2023-10-06T10:15:50.052Z" agent="Mozilla/5.0 (Windows NT 10.0; Win64; x64) AppleWebKit/537.36 (KHTML, like Gecko) Chrome/117.0.0.0 Safari/537.36" etag="p9Lr-Ykbmm5pK9nlzhad" version="21.7.5" type="device">
  <diagram name="1 oldal" id="BwSunctcYn5GKKophEAp">
    <mxGraphModel dx="1194" dy="610" grid="1" gridSize="10" guides="1" tooltips="1" connect="1" arrows="1" fold="1" page="1" pageScale="1" pageWidth="827" pageHeight="1169" math="0" shadow="0">
      <root>
        <mxCell id="0" />
        <mxCell id="1" parent="0" />
        <mxCell id="icCL5KxvOok2fu00Sd2r-3" value="" style="edgeStyle=orthogonalEdgeStyle;rounded=0;orthogonalLoop=1;jettySize=auto;html=1;" parent="1" source="icCL5KxvOok2fu00Sd2r-1" target="icCL5KxvOok2fu00Sd2r-2" edge="1">
          <mxGeometry relative="1" as="geometry" />
        </mxCell>
        <mxCell id="icCL5KxvOok2fu00Sd2r-1" value="start" style="ellipse;whiteSpace=wrap;html=1;" parent="1" vertex="1">
          <mxGeometry x="90" y="20" width="120" height="80" as="geometry" />
        </mxCell>
        <mxCell id="icCL5KxvOok2fu00Sd2r-5" value="" style="edgeStyle=orthogonalEdgeStyle;rounded=0;orthogonalLoop=1;jettySize=auto;html=1;" parent="1" source="icCL5KxvOok2fu00Sd2r-2" target="icCL5KxvOok2fu00Sd2r-4" edge="1">
          <mxGeometry relative="1" as="geometry" />
        </mxCell>
        <mxCell id="icCL5KxvOok2fu00Sd2r-2" value="lista = [] . n:egÃ©sz" style="shape=parallelogram;perimeter=parallelogramPerimeter;whiteSpace=wrap;html=1;fixedSize=1;" parent="1" vertex="1">
          <mxGeometry x="85" y="140" width="130" height="60" as="geometry" />
        </mxCell>
        <mxCell id="icCL5KxvOok2fu00Sd2r-7" value="" style="edgeStyle=orthogonalEdgeStyle;rounded=0;orthogonalLoop=1;jettySize=auto;html=1;" parent="1" source="icCL5KxvOok2fu00Sd2r-4" target="icCL5KxvOok2fu00Sd2r-6" edge="1">
          <mxGeometry relative="1" as="geometry" />
        </mxCell>
        <mxCell id="icCL5KxvOok2fu00Sd2r-4" value="maxi = 0, i = 0" style="whiteSpace=wrap;html=1;" parent="1" vertex="1">
          <mxGeometry x="90" y="240" width="120" height="60" as="geometry" />
        </mxCell>
        <mxCell id="icCL5KxvOok2fu00Sd2r-9" value="" style="edgeStyle=orthogonalEdgeStyle;rounded=0;orthogonalLoop=1;jettySize=auto;html=1;" parent="1" source="icCL5KxvOok2fu00Sd2r-6" target="icCL5KxvOok2fu00Sd2r-8" edge="1">
          <mxGeometry relative="1" as="geometry" />
        </mxCell>
        <mxCell id="icCL5KxvOok2fu00Sd2r-13" style="edgeStyle=orthogonalEdgeStyle;rounded=0;orthogonalLoop=1;jettySize=auto;html=1;" parent="1" source="icCL5KxvOok2fu00Sd2r-6" target="icCL5KxvOok2fu00Sd2r-14" edge="1">
          <mxGeometry relative="1" as="geometry">
            <mxPoint x="110" y="730" as="targetPoint" />
            <Array as="points">
              <mxPoint x="50" y="410" />
              <mxPoint x="50" y="411" />
              <mxPoint x="40" y="411" />
            </Array>
          </mxGeometry>
        </mxCell>
        <mxCell id="icCL5KxvOok2fu00Sd2r-6" value="i &amp;lt; n-1" style="rhombus;whiteSpace=wrap;html=1;" parent="1" vertex="1">
          <mxGeometry x="87.5" y="350" width="125" height="120" as="geometry" />
        </mxCell>
        <mxCell id="icCL5KxvOok2fu00Sd2r-11" value="" style="edgeStyle=orthogonalEdgeStyle;rounded=0;orthogonalLoop=1;jettySize=auto;html=1;" parent="1" source="icCL5KxvOok2fu00Sd2r-8" target="icCL5KxvOok2fu00Sd2r-10" edge="1">
          <mxGeometry relative="1" as="geometry" />
        </mxCell>
        <mxCell id="icCL5KxvOok2fu00Sd2r-8" value="lista[i]&amp;gt;lista[maxi]" style="rhombus;whiteSpace=wrap;html=1;" parent="1" vertex="1">
          <mxGeometry x="292.5" y="350" width="125" height="120" as="geometry" />
        </mxCell>
        <mxCell id="icCL5KxvOok2fu00Sd2r-18" value="" style="edgeStyle=orthogonalEdgeStyle;rounded=0;orthogonalLoop=1;jettySize=auto;html=1;" parent="1" source="icCL5KxvOok2fu00Sd2r-10" target="icCL5KxvOok2fu00Sd2r-17" edge="1">
          <mxGeometry relative="1" as="geometry" />
        </mxCell>
        <mxCell id="icCL5KxvOok2fu00Sd2r-10" value="maxi = i" style="whiteSpace=wrap;html=1;" parent="1" vertex="1">
          <mxGeometry x="295" y="580" width="120" height="60" as="geometry" />
        </mxCell>
        <mxCell id="icCL5KxvOok2fu00Sd2r-16" value="" style="edgeStyle=orthogonalEdgeStyle;rounded=0;orthogonalLoop=1;jettySize=auto;html=1;" parent="1" source="icCL5KxvOok2fu00Sd2r-14" target="icCL5KxvOok2fu00Sd2r-15" edge="1">
          <mxGeometry relative="1" as="geometry" />
        </mxCell>
        <mxCell id="icCL5KxvOok2fu00Sd2r-14" value="ki: maxi" style="shape=parallelogram;perimeter=parallelogramPerimeter;whiteSpace=wrap;html=1;fixedSize=1;" parent="1" vertex="1">
          <mxGeometry x="80" y="700" width="120" height="60" as="geometry" />
        </mxCell>
        <mxCell id="icCL5KxvOok2fu00Sd2r-15" value="end" style="ellipse;whiteSpace=wrap;html=1;" parent="1" vertex="1">
          <mxGeometry x="250" y="690" width="120" height="80" as="geometry" />
        </mxCell>
        <mxCell id="icCL5KxvOok2fu00Sd2r-19" value="" style="edgeStyle=orthogonalEdgeStyle;rounded=0;orthogonalLoop=1;jettySize=auto;html=1;" parent="1" source="icCL5KxvOok2fu00Sd2r-17" target="icCL5KxvOok2fu00Sd2r-6" edge="1">
          <mxGeometry relative="1" as="geometry" />
        </mxCell>
        <mxCell id="icCL5KxvOok2fu00Sd2r-17" value="i++" style="whiteSpace=wrap;html=1;" parent="1" vertex="1">
          <mxGeometry x="90" y="580" width="120" height="60" as="geometry" />
        </mxCell>
      </root>
    </mxGraphModel>
  </diagram>
</mxfile>
